<?xml version="1.0" encoding="UTF-8" standalone="no"?>
<!DOCTYPE svg PUBLIC "-//W3C//DTD SVG 1.1//EN" "http://www.w3.org/Graphics/SVG/1.1/DTD/svg11.dtd">
<svg width="100%" height="100%" viewBox="0 0 2000 666" version="1.1" xmlns="http://www.w3.org/2000/svg" xmlns:xlink="http://www.w3.org/1999/xlink" xml:space="preserve" xmlns:serif="http://www.serif.com/" style="fill-rule:evenodd;clip-rule:evenodd;stroke-linecap:round;stroke-linejoin:round;stroke-miterlimit:10;">
    <g id="Logo-Niuro" serif:id="Logo Niuro" transform="matrix(4.166667,0,0,1.386098,0,0)">
        <rect x="0" y="0" width="480" height="480" style="fill:none;"/>
        <g transform="matrix(1,0,0,3.00604,0,-389.363456)">
            <path d="M447.45,245.893C417.168,267.676 382.82,236.558 399.968,206.576C411.693,186.076 456.515,185.573 457.659,223.765C458.038,236.412 448.903,244.592 447.45,245.893L412.409,210.048C398.222,228.489 420.123,252.115 437.864,238.556C450.528,228.876 446.536,203.636 426.261,203.282C418.224,203.142 413.203,209.105 412.409,210.048L447.45,245.893Z" style="fill:rgb(20,18,65);"/>
        </g>
        <g transform="matrix(1,0,0,3.00604,0,-426.782638)">
            <path d="M228.495,219.371C220.483,211.921 210.8,215.29 206.254,221.692C202.485,226.998 205.176,258.895 203.872,263.07C203.078,265.615 192.957,264.681 192.235,263.845C191.068,262.494 191.15,225.198 191.52,223.944C198.553,200.082 226.171,203.11 235.421,210.325C246.644,219.076 245.073,225.859 245.216,261.896C245.228,265.05 241.406,264.916 235.27,264.618C233.153,264.516 233.088,264.057 233.044,261.902C232.448,232.805 234.701,226.169 228.495,219.371Z" style="fill:rgb(20,18,65);"/>
        </g>
        <g transform="matrix(1,0,0,3.00604,0,-391.15205)">
            <path d="M337.546,247.495C319.553,260.577 293.457,252.25 292.784,229.505C292.702,226.739 291.807,196.495 293.074,194.916C293.658,194.188 303.806,193.267 304.802,195.689C305.402,197.15 304.501,231.624 305.83,234.765C306.438,236.203 311.485,246.083 323.576,242.891C332.108,240.638 332.915,233.728 333.044,232.618C334.678,218.621 332.551,195.232 334.748,194.378C334.874,194.329 344.852,193.413 345.725,194.867C345.91,195.173 346.787,230.699 344.733,236.568C344.387,237.555 342.455,243.077 337.546,247.495Z" style="fill:rgb(20,18,65);"/>
        </g>
        <g transform="matrix(1,0,0,3.00604,0,-411.277485)">
            <path d="M367.148,207.901C367.779,207.38 367.77,207.483 368.367,206.991C368.642,206.764 368.544,206.751 368.827,206.516C375.063,201.362 386.293,200.536 387.213,201.322C388.101,202.081 388.038,207.893 388.032,208.468C387.994,211.934 386.519,210.973 383.212,211.863C382.59,212.03 378.318,213.18 376.262,215.928C371.332,222.52 374.408,249.402 373.567,257.73C373.337,260.003 366.394,259.584 363.635,259.462C360.357,259.318 361.378,253.061 361.399,249.55C361.604,216.649 360.682,215.738 367.148,207.901Z" style="fill:rgb(20,18,65);"/>
        </g>
        <g transform="matrix(1,0,0,3.00604,0,-410.216353)">
            <path d="M271.206,200.411C273.624,200.82 274.566,199.832 274.911,202.015C274.926,202.108 274.926,209.522 274.926,210.175C274.925,256.808 274.956,256.829 274.753,257.532C273.939,260.354 263.87,259.13 263.244,258.221C262.334,256.902 262.993,202.149 263.033,201.977C263.465,200.127 269.451,200.466 271.206,200.411Z" style="fill:rgb(20,18,65);"/>
        </g>
        <g transform="matrix(-1,0,0,3.00604,539.584,-681.866145)">
            <circle cx="269.792" cy="275.277" r="7.027" style="fill:rgb(21,22,68);stroke:rgb(20,18,65);stroke-width:0.24px;"/>
        </g>
        <g transform="matrix(1,0,0,3.00604,0,-468.088629)">
            <path d="M40.985,191.995C41.719,191.537 41.693,191.539 42.437,191.09C42.874,190.826 73.939,172.389 73.999,172.356C74.468,172.096 74.585,171.995 79.54,174.383C89.782,179.318 89.801,179.286 89.859,179.291C90.759,179.357 104.559,171.905 105.466,172.182C106.32,172.443 106.276,172.544 115.095,177.831C119.153,180.265 138.636,191.676 139.009,192.069C139.548,192.636 139.295,204.135 139.473,210.06C139.504,211.071 140.194,211.066 145.903,214.28C151.788,217.594 156.717,219.964 156.982,220.695C157.115,221.061 157.193,244.741 157.2,246.832C157.244,259.822 157.272,259.815 157.161,260.103C156.945,260.66 141.258,270.046 140.272,270.761C139.455,271.354 139.699,271.946 139.422,280.625C139.224,286.88 139.631,287.253 138.31,288.039C136.47,289.134 117.838,300.227 115.29,301.686C105.566,307.252 105.482,307.44 104.763,307.168C103.631,306.74 102.065,306.148 91.234,300.422C89.465,299.486 89.369,300.028 87.597,300.941C74.985,307.443 75.01,307.533 74.622,307.53C74.109,307.527 41.139,287.772 41.056,287.694C40.237,286.922 40.794,271.832 40.083,271.095C39.712,270.711 30.489,265.098 29.648,264.586C22.917,260.49 22.83,260.416 22.744,259.747C22.73,259.635 22.949,222.648 22.984,220.991C23.007,219.888 24.378,219.601 31.501,215.6C32.837,214.849 38.788,211.586 39.423,211.238C40.683,210.547 40.34,209.406 40.393,207.071C40.71,193.152 40.471,193.087 40.985,191.995L48.612,269.857C48.049,270.983 48.31,281.24 48.661,282.326C48.98,283.314 49.266,283.123 73.015,297.444C74.446,298.307 74.527,298.773 76.018,297.991C77.635,297.142 79.252,296.293 80.868,295.444C85.27,293.135 85.427,293.074 85.436,292.224C85.475,288.723 85.914,249.182 85.597,248.467C85.053,247.236 75.941,250.629 73.402,246.435C71.067,242.579 73.072,236.161 80.244,238.256C80.954,238.463 85.432,239.325 85.659,238.24C85.682,238.131 85.664,216.812 85.671,187.194C85.671,185.995 85.324,186.023 79.984,183.424C75.397,181.192 75.214,180.997 73.879,181.751C69.88,184.01 49.368,196.184 48.809,196.827C48.171,197.561 48.531,211.42 48.683,211.765C49.281,213.126 55.872,214.188 57.585,216.464C61.402,221.535 54.786,228.306 49.392,223.699C47.748,222.295 42.731,218.885 42.146,218.921C41.966,218.932 31.044,224.735 30.837,225.275C30.729,225.556 30.493,238.214 30.658,238.479C31.256,239.442 36.395,238.119 36.878,237.995C42.721,236.49 46.672,243.851 41.431,247.745C38.42,249.982 30.548,247.037 30.556,248.821C30.583,255.517 30.572,255.616 31.023,255.968C31.31,256.191 39.862,261.667 41.101,262.202C43.454,263.216 50.126,256.703 52.064,256.335C57.935,255.218 61.712,263.325 55.672,266.587C54.83,267.041 52.652,267.49 51.812,267.835C50.051,268.558 50.167,268.72 48.612,269.857L40.985,191.995L122.838,257.944C123.113,257.679 124.982,255.883 127.286,256.226C129.567,256.566 136.42,262.463 137.903,262.509C138.777,262.536 148.867,256.085 149.112,255.742C149.368,255.384 149.441,248.618 149.405,248.528C149.13,247.847 144.241,248.644 141.549,248.563C135.221,248.372 134.841,241.388 138.011,239.009C141.029,236.743 144.344,238.349 144.572,238.42C145.787,238.797 149.099,238.935 149.363,238.466C149.473,238.269 149.333,225.624 149.123,225.325C148.655,224.656 148.533,224.774 140.282,220.226C138.423,219.201 138.321,218.445 136.504,219.539C129.742,223.611 130.291,224.705 127.974,225.027C122.453,225.795 120.882,221.538 121.322,218.999C122.253,213.637 125.584,215.527 130.54,212.258C131.438,211.665 131.179,211.406 131.065,200.445C131.036,197.652 131.938,197.019 129.536,195.624C124.544,192.725 105.399,181.283 105.114,181.201C104.374,180.989 94.591,185.844 94.455,186.177C94.273,186.62 94.347,219.323 94.347,226.291C94.347,238.34 94.252,238.667 94.854,238.733C98.618,239.144 101.775,236.846 104.389,238.318C107.07,239.827 107.601,241.56 107.297,244.168C107.053,246.255 104.576,248.51 103.78,248.503C94.82,248.423 94.391,248.061 94.321,248.834C94.273,249.36 94.516,282.657 94.538,285.598C94.589,292.674 94.327,293.007 95.467,293.605C102.105,297.088 104.667,298.61 105.728,298.099C106.152,297.895 130.14,283.646 130.641,283.308C131.061,283.024 131.062,282.925 131.12,276.982C131.19,269.955 131.346,269.86 130.899,269.418C129.427,267.966 126.418,267.366 125.998,267.282C122.385,266.561 119.149,261.981 122.838,257.944L40.985,191.995Z" style="fill:rgb(255,208,103);"/>
        </g>
        <g transform="matrix(1,0,0,3.00604,0,-463.01744)">
            <path d="M61.881,195.617C65.817,192.042 69.752,195.226 70.621,197.445C71.235,199.014 70.903,199.318 73.507,201.237C75.52,202.722 75.186,203.022 75.196,204.393C75.208,206.008 75.339,223.971 75.208,224.585C75.025,225.438 64.025,232.933 63.691,233.551C63.358,234.166 63.575,246.822 63.581,246.84C63.804,247.575 74.103,251.94 74.884,252.529C75.316,252.855 75.252,252.982 75.252,266.02C75.252,274.772 75.416,274.945 74.499,275.831C69.215,280.942 70.664,282.761 66.96,283.757C59.705,285.709 57.444,274.879 64.339,273.254C66.294,272.794 66.816,272.721 66.967,269.332C67.062,267.194 67.026,258.174 67.007,258.067C66.782,256.829 55.977,252.917 55.551,251.735C55.51,251.62 55.261,230.393 55.279,230.225C55.369,229.396 55.587,229.432 63.461,223.75C66.614,221.475 66.956,221.519 66.967,219.965C67.064,206.594 66.94,206.458 66.253,205.812C65.5,205.105 60.608,204.192 60.311,200.754C59.974,196.841 61.14,196.289 61.881,195.617Z" style="fill:rgb(255,208,103);"/>
        </g>
        <g transform="matrix(1,0,0,3.00604,0,-455.884108)">
            <path d="M107.244,198.209C108.695,196.711 108.509,196.596 109.458,194.756C111.059,191.652 115.336,190.799 117.644,192.802C122.387,196.918 118.276,201.954 116.07,202.473C115.772,202.543 113.349,203.113 112.718,204.334C112.412,204.927 112.594,218.185 112.626,218.289C112.837,218.969 123.295,226.176 123.971,226.888C124.321,227.256 124.273,227.34 124.273,243.767C124.273,249.267 124.557,249.636 123.268,250.268C113.428,255.093 112.826,254.766 112.789,256.029C112.381,269.843 112.743,270.48 114.369,270.697C114.945,270.774 119.232,271.347 119.764,275.56C120.476,281.189 112.223,284.579 109.207,278.17C107.552,274.652 105.68,273.987 104.923,272.823C104.604,272.331 104.733,250.7 104.851,250.433C105.156,249.738 115.733,245.282 116.287,244.691C116.771,244.175 116.499,232.863 116.475,231.834C116.464,231.375 116.474,231.276 112.961,228.654C105.411,223.02 104.806,222.875 104.756,221.9C104.754,221.869 104.752,200.953 104.758,200.693C104.779,199.794 105.158,200.008 107.244,198.209Z" style="fill:rgb(255,208,103);"/>
        </g>
    </g>
</svg>
