<?xml version="1.0" encoding="UTF-8" standalone="no"?><!DOCTYPE svg PUBLIC "-//W3C//DTD SVG 1.1//EN" "http://www.w3.org/Graphics/SVG/1.1/DTD/svg11.dtd"><svg width="100%" height="100%" viewBox="0 0 939 301" version="1.1" xmlns="http://www.w3.org/2000/svg" xmlns:xlink="http://www.w3.org/1999/xlink" xml:space="preserve" xmlns:serif="http://www.serif.com/" style="fill-rule:evenodd;clip-rule:evenodd;stroke-linejoin:round;stroke-miterlimit:2;"><rect id="Logo-Niuro-Footer" serif:id="Logo Niuro Footer" x="0" y="0" width="938.839" height="300.162" style="fill:none;"/><path d="M884.203,214.602c-61.638,44.338 -131.552,-19.001 -96.648,-80.028c23.866,-41.727 115.099,-42.751 117.428,34.988c0.771,25.742 -17.822,42.393 -20.78,45.041l-71.325,-72.961c-28.877,37.536 15.702,85.626 51.813,58.027c25.777,-19.703 17.652,-71.078 -23.617,-71.799c-16.359,-0.285 -26.579,11.852 -28.195,13.772l71.325,72.961Z" style="fill:#fff;"/><path d="M438.529,135.28c-16.308,-15.164 -36.017,-8.307 -45.271,4.724c-7.672,10.8 -2.194,75.725 -4.848,84.223c-1.616,5.18 -22.217,3.279 -23.687,1.577c-2.375,-2.75 -2.208,-78.664 -1.455,-81.217c14.315,-48.57 70.531,-42.407 89.359,-27.721c22.844,17.812 19.646,31.619 19.937,104.971c0.024,6.42 -7.755,6.147 -20.245,5.541c-4.309,-0.208 -4.441,-1.142 -4.531,-5.528c-1.213,-59.226 3.373,-72.733 -9.259,-86.57Z" style="fill:#fff;"/><path d="M660.498,216.652c-36.624,26.628 -89.741,9.679 -91.111,-36.618c-0.167,-5.63 -1.989,-67.191 0.59,-70.405c1.189,-1.482 21.845,-3.356 23.872,1.573c1.221,2.974 -0.613,73.144 2.092,79.538c1.238,2.927 11.511,23.037 36.121,16.54c17.367,-4.586 19.009,-18.651 19.272,-20.91c3.326,-28.49 -1.003,-76.098 3.468,-77.836c0.256,-0.1 20.566,-1.964 22.343,0.995c0.377,0.623 2.162,72.935 -2.019,84.881c-0.704,2.009 -4.637,13.249 -14.629,22.241Z" style="fill:#fff;"/><path d="M720.752,122.432c1.284,-1.06 1.266,-0.851 2.481,-1.852c0.56,-0.462 0.36,-0.489 0.936,-0.967c12.693,-10.491 35.551,-12.172 37.424,-10.572c1.807,1.545 1.679,13.375 1.667,14.545c-0.077,7.055 -3.08,5.099 -9.811,6.91c-1.266,0.34 -9.962,2.681 -14.146,8.274c-10.035,13.418 -3.774,68.135 -5.486,85.086c-0.468,4.627 -14.6,3.774 -20.216,3.525c-6.672,-0.293 -4.594,-13.029 -4.551,-20.175c0.417,-66.969 -1.459,-68.823 11.702,-84.775Z" style="fill:#fff;"/><path d="M525.465,107.905c4.922,0.833 6.839,-1.179 7.541,3.265c0.031,0.189 0.031,15.28 0.031,16.609c-0.002,94.92 0.061,94.962 -0.352,96.393c-1.657,5.744 -22.152,3.253 -23.426,1.402c-1.852,-2.685 -0.511,-114.132 -0.429,-114.482c0.879,-3.766 13.064,-3.076 16.636,-3.188Z" style="fill:#fff;"/><circle cx="522.587" cy="76.351" r="14.303" style="fill:#fff;"/><path d="M56.859,51.588c1.494,-0.932 1.441,-0.928 2.955,-1.842c0.89,-0.537 64.123,-38.065 64.243,-38.132c0.956,-0.529 1.193,-0.735 11.279,4.126c20.848,10.045 20.887,9.98 21.005,9.99c1.831,0.134 29.92,-15.034 31.767,-14.47c1.738,0.531 1.649,0.737 19.599,11.498c8.26,4.954 47.917,28.181 48.676,28.981c1.097,1.154 0.582,24.56 0.944,36.62c0.063,2.058 1.468,2.048 13.088,8.59c11.979,6.746 22.011,11.57 22.551,13.057c0.271,0.745 0.429,48.945 0.444,53.201c0.09,26.441 0.147,26.426 -0.079,27.013c-0.44,1.134 -32.37,20.239 -34.377,21.694c-1.663,1.207 -1.166,2.412 -1.73,20.078c-0.403,12.732 0.425,13.491 -2.263,15.091c-3.745,2.229 -41.67,24.808 -46.856,27.778c-19.793,11.329 -19.964,11.712 -21.427,11.158c-2.304,-0.871 -5.492,-2.076 -27.538,-13.731c-3.601,-1.905 -3.796,-0.802 -7.402,1.056c-25.671,13.235 -25.62,13.418 -26.41,13.412c-1.044,-0.006 -68.153,-40.217 -68.322,-40.375c-1.668,-1.571 -0.533,-32.286 -1.981,-33.787c-0.755,-0.782 -19.529,-12.207 -21.24,-13.249c-13.701,-8.337 -13.877,-8.488 -14.053,-9.85c-0.029,-0.228 0.416,-75.514 0.487,-78.886c0.048,-2.245 2.837,-2.829 17.336,-10.973c2.72,-1.529 14.833,-8.17 16.124,-8.879c2.566,-1.407 1.868,-3.729 1.976,-8.482c0.645,-28.332 0.158,-28.464 1.204,-30.687l15.526,158.485c-1.147,2.292 -0.615,23.17 0.1,25.38c0.649,2.011 1.231,1.622 49.57,30.772c2.913,1.757 3.078,2.705 6.113,1.113c3.291,-1.728 6.582,-3.456 9.872,-5.184c8.959,-4.7 9.279,-4.824 9.298,-6.554c0.079,-7.126 0.972,-87.61 0.328,-89.066c-1.107,-2.506 -19.655,4.401 -24.824,-4.136c-4.752,-7.849 -0.672,-20.912 13.928,-16.648c1.444,0.421 10.559,2.176 11.021,-0.033c0.047,-0.222 0.011,-43.616 0.024,-103.902c0.001,-2.441 -0.706,-2.384 -11.575,-7.674c-9.338,-4.543 -9.71,-4.94 -12.426,-3.405c-8.141,4.598 -49.892,29.378 -51.029,30.687c-1.299,1.494 -0.565,29.703 -0.257,30.406c1.216,2.77 14.633,4.932 18.12,9.565c7.769,10.322 -5.698,24.104 -16.677,14.727c-3.347,-2.858 -13.558,-9.799 -14.749,-9.725c-0.366,0.022 -22.597,11.834 -23.018,12.933c-0.219,0.572 -0.7,26.337 -0.365,26.876c1.217,1.96 11.676,-0.733 12.66,-0.985c11.893,-3.063 19.936,11.92 9.268,19.846c-6.128,4.553 -22.152,-1.441 -22.137,2.19c0.057,13.629 0.032,13.831 0.952,14.547c0.583,0.454 17.99,11.6 20.513,12.689c4.788,2.064 18.369,-11.193 22.315,-11.942c11.95,-2.274 19.638,14.228 7.342,20.868c-1.713,0.924 -6.146,1.838 -7.855,2.54c-3.584,1.472 -3.349,1.801 -6.513,4.116l-15.526,-158.485l166.609,134.237c0.56,-0.539 4.364,-4.195 9.054,-3.497c4.643,0.692 18.592,12.695 21.61,12.789c1.779,0.055 22.317,-13.076 22.815,-13.774c0.521,-0.729 0.67,-14.501 0.596,-14.684c-0.56,-1.386 -10.511,0.236 -15.991,0.071c-12.88,-0.389 -13.654,-14.604 -7.201,-19.447c6.143,-4.612 12.891,-1.343 13.355,-1.199c2.473,0.767 9.215,1.048 9.752,0.094c0.224,-0.401 -0.061,-26.139 -0.489,-26.748c-0.953,-1.362 -1.201,-1.122 -17.996,-10.379c-3.784,-2.086 -3.992,-3.625 -7.69,-1.398c-13.764,8.288 -12.646,10.515 -17.362,11.171c-11.238,1.563 -14.435,-7.102 -13.54,-12.27c1.895,-10.914 8.675,-7.067 18.763,-13.721c1.828,-1.207 1.301,-1.734 1.069,-24.045c-0.059,-5.685 1.777,-6.973 -3.112,-9.813c-10.161,-5.901 -49.13,-29.191 -49.71,-29.357c-1.506,-0.432 -21.419,9.451 -21.696,10.128c-0.37,0.902 -0.221,67.467 -0.221,81.65c0,24.525 -0.192,25.191 1.033,25.325c7.661,0.837 14.087,-3.841 19.408,-0.845c5.457,3.072 6.538,6.599 5.919,11.907c-0.497,4.248 -5.538,8.838 -7.159,8.824c-18.238,-0.163 -19.112,-0.9 -19.254,0.674c-0.097,1.071 0.398,68.845 0.441,74.832c0.105,14.403 -0.429,15.081 1.892,16.298c13.511,7.09 18.726,10.187 20.886,9.147c0.863,-0.415 49.69,-29.419 50.709,-30.106c0.855,-0.578 0.857,-0.78 0.975,-12.876c0.142,-14.303 0.46,-14.497 -0.45,-15.396c-2.996,-2.955 -9.121,-4.177 -9.976,-4.348c-7.354,-1.468 -13.941,-10.79 -6.432,-19.007l-166.609,-134.237Z" style="fill:#ffd067;"/><path d="M99.394,62.394c8.011,-7.277 16.02,-0.796 17.789,3.721c1.25,3.194 0.575,3.812 5.875,7.718c4.098,3.023 3.417,3.633 3.437,6.424c0.024,3.287 0.292,39.85 0.024,41.1c-0.373,1.736 -22.763,16.992 -23.443,18.25c-0.678,1.252 -0.235,27.013 -0.224,27.049c0.455,1.496 21.419,10.381 23.008,11.58c0.878,0.664 0.749,0.922 0.749,27.46c0,17.814 0.333,18.166 -1.533,19.97c-10.756,10.403 -7.807,14.106 -15.345,16.133c-14.767,3.973 -19.369,-18.071 -5.336,-21.378c3.979,-0.936 5.043,-1.085 5.35,-7.983c0.194,-4.352 0.119,-22.712 0.08,-22.929c-0.458,-2.52 -22.449,-10.483 -23.316,-12.889c-0.084,-0.234 -0.591,-43.441 -0.554,-43.783c0.183,-1.687 0.626,-1.614 16.654,-13.18c6.417,-4.631 7.113,-4.541 7.136,-7.704c0.196,-27.216 -0.056,-27.493 -1.454,-28.808c-1.532,-1.439 -11.49,-3.297 -12.094,-10.295c-0.688,-7.965 1.687,-9.088 3.196,-10.456Z" style="fill:#ffd067;"/><path d="M191.727,72.5c2.953,-3.049 2.575,-3.283 4.507,-7.028c3.259,-6.318 11.964,-8.054 16.662,-3.977c9.654,8.378 1.286,18.629 -3.204,19.685c-0.607,0.142 -5.538,1.303 -6.823,3.788c-0.623,1.207 -0.252,28.193 -0.187,28.405c0.429,1.384 21.716,16.054 23.092,17.503c0.712,0.749 0.615,0.92 0.615,34.357c0,11.195 0.578,11.946 -2.046,13.233c-20.029,9.821 -21.254,9.156 -21.33,11.726c-0.83,28.118 -0.094,29.414 3.216,29.856c1.172,0.157 9.898,1.323 10.981,9.898c1.449,11.458 -15.349,18.358 -21.488,5.313c-3.369,-7.161 -7.179,-8.514 -8.72,-10.884c-0.649,-1.001 -0.387,-45.03 -0.147,-45.574c0.621,-1.415 22.15,-10.485 23.278,-11.688c0.985,-1.05 0.432,-24.075 0.383,-26.17c-0.022,-0.934 -0.002,-1.136 -7.153,-6.473c-15.368,-11.468 -16.599,-11.763 -16.701,-13.748c-0.004,-0.063 -0.008,-42.637 0.004,-43.166c0.043,-1.83 0.814,-1.394 5.06,-5.056Z" style="fill:#ffd067;"/></svg>