<svg xmlns="http://www.w3.org/2000/svg" xmlns:xlink="http://www.w3.org/1999/xlink" width="500px" height="500px" viewBox="0 0 500 500">
    <g id="d2f4d24d-d03c-448a-80b3-92fcf4b11563">
<g style="">
		<g id="d2f4d24d-d03c-448a-80b3-92fcf4b11563-child-0">
<path style="stroke: rgb(193,193,193); stroke-width: 0; stroke-dasharray: none; stroke-linecap: butt; stroke-dashoffset: 0; stroke-linejoin: miter; stroke-miterlimit: 4; fill: rgb(255,255,255); fill-rule: nonzero; opacity: 1;" transform="matrix(0.419464 0 0 0.419659 250 250) matrix(1 0 0 1 195.571193 -4.874887)  translate(-791.725725, -270.625113)" d="M 1014.46 364.99 C 1006.72 363.59 995.44 359.50 989.17 355.82 C 979.72 350.28 968.92 338.68 964.13 328.91 C 958.25 316.91 956.60 309.68 956.60 296.00 C 956.60 282.33 958.24 275.13 964.15 263.00 C 969.91 251.17 980.95 240.17 993.00 234.28 C 1004.27 228.76 1011.27 227.00 1024.55 226.31 C 1042.14 225.40 1056.98 229.19 1070.62 238.08 C 1101.42 258.15 1109.80 303.96 1088.52 335.96 C 1080.20 348.49 1069.04 356.68 1052.95 362.07 C 1044.87 364.78 1041.78 365.28 1031.51 365.57 C 1024.90 365.75 1017.23 365.49 1014.46 364.99 Z M 483.41 362.64 C 483.11 361.85 483.03 341.25 483.24 316.86 C 483.56 277.37 483.80 271.90 485.41 267.00 C 491.71 247.86 503.89 235.45 522.42 229.29 C 529.70 226.87 531.94 226.61 545.00 226.61 C 558.06 226.61 560.30 226.87 567.58 229.29 C 587.50 235.92 601.36 251.05 605.54 270.75 C 606.65 276.00 606.97 287.12 606.98 320.75 L 607.00 364.00 L 579.11 364.00 L 578.80 319.75 C 578.48 275.76 578.46 275.46 576.09 269.53 C 574.51 265.61 571.93 261.80 568.56 258.43 C 562.01 251.88 555.61 249.51 544.45 249.52 C 537.38 249.53 535.60 249.92 529.73 252.81 C 522.63 256.31 517.64 261.40 514.36 268.50 C 512.67 272.15 512.46 276.47 512.00 318.00 L 511.50 363.50 L 497.73 363.78 C 486.56 364.00 483.86 363.79 483.41 362.64 Z M 763.50 364.50 C 746.87 361.07 730.69 349.31 724.16 335.91 C 717.68 322.61 717.52 321.12 717.51 272.50 L 717.50 228.50 L 745.50 228.50 L 746.50 319.50 L 749.29 325.18 C 754.70 336.20 765.16 342.37 778.50 342.40 C 789.93 342.43 796.05 340.11 803.06 333.09 C 812.57 323.57 812.39 324.69 812.77 272.75 L 813.10 228.00 L 841.00 228.00 L 840.98 271.25 C 840.97 304.88 840.65 316.00 839.54 321.25 C 835.35 340.99 821.34 356.26 801.58 362.62 C 791.46 365.88 774.30 366.72 763.50 364.50 Z M 1034.99 340.93 C 1057.74 337.24 1071.56 319.96 1071.32 295.50 C 1071.13 276.12 1062.44 261.67 1046.61 254.42 C 1025.31 244.67 1000.49 253.08 990.41 273.48 C 976.36 301.91 991.47 336.10 1020.19 340.88 C 1027.57 342.11 1027.72 342.11 1034.99 340.93 Z M 877.23 315.75 C 877.55 269.48 877.65 267.27 879.68 261.89 C 885.34 246.89 895.80 237.25 912.00 232.10 C 918.58 230.01 936.43 227.53 937.98 228.49 C 938.45 228.78 938.75 234.04 938.66 240.19 L 938.50 251.36 L 931.25 252.59 C 922.38 254.08 914.73 258.21 910.89 263.56 C 905.41 271.20 905.00 275.25 905.00 321.71 L 905.00 364.00 L 876.89 364.00 Z M 648.46 362.75 C 648.20 362.06 648.10 331.58 648.24 295.00 L 648.50 228.50 L 662.25 228.22 L 676.00 227.94 L 676.00 364.00 L 662.47 364.00 C 652.56 364.00 648.81 363.66 648.46 362.75 Z M 652.85 206.04 C 647.60 203.19 645.00 198.46 645.00 191.78 C 645.00 181.68 651.66 175.51 662.57 175.51 C 667.56 175.50 669.40 176.00 672.90 178.32 C 682.56 184.71 682.47 198.15 672.72 205.38 C 668.67 208.38 657.82 208.74 652.85 206.04 Z" stroke-linecap="round"></path>
</g>
		<g id="d2f4d24d-d03c-448a-80b3-92fcf4b11563-child-1">
<path style="stroke: rgb(193,193,193); stroke-width: 0; stroke-dasharray: none; stroke-linecap: butt; stroke-dashoffset: 0; stroke-linejoin: miter; stroke-miterlimit: 4; fill: rgb(255,255,255); fill-rule: nonzero; opacity: 1;" transform="matrix(0.419464 0 0 0.419659 250 250) matrix(1 0 0 1 -349.169532 0)  translate(-246.985, -275.5)" d="M 172.50 408.59 L 133.50 385.45 L 133.00 366.58 L 132.50 347.70 L 112.24 335.16 L 91.98 322.61 L 92.24 276.58 L 92.50 230.54 L 112.50 219.51 L 132.50 208.48 L 133.00 187.01 L 133.50 165.53 L 172.47 142.41 L 211.44 119.29 L 224.47 125.50 C 231.64 128.92 239.60 132.75 242.17 134.02 L 246.84 136.32 L 264.51 127.79 L 282.17 119.26 L 303.34 131.78 C 314.98 138.67 332.60 149.10 342.50 154.96 L 360.50 165.61 L 360.78 187.05 L 361.07 208.50 L 381.28 219.63 L 401.50 230.76 L 401.75 276.63 L 401.99 322.50 L 381.75 335.05 L 361.50 347.59 L 361.00 366.44 L 360.50 385.29 L 322.00 408.12 C 300.83 420.67 282.87 430.96 282.11 430.97 C 281.35 430.99 273.10 427.06 263.78 422.25 L 246.84 413.50 L 229.17 422.62 L 211.50 431.74 L 172.50 408.59 Z M 236.76 346.38 L 237.02 294.69 L 226.45 295.34 C 214.91 296.05 211.68 295.21 208.78 290.79 C 201.82 280.16 211.49 267.39 223.37 271.53 C 225.64 272.32 229.64 272.98 232.25 272.99 L 237.00 273.00 L 237.00 212.47 L 237.00 151.95 L 224.89 145.98 C 218.22 142.71 212.49 140.18 212.14 140.37 C 204.86 144.30 152.28 175.73 151.75 176.47 C 151.34 177.03 151.12 185.07 151.25 194.32 L 151.50 211.14 L 156.00 213.49 C 158.48 214.79 162.47 216.37 164.87 217.00 C 174.99 219.66 178.29 230.87 171.08 238.08 C 166.09 243.06 158.64 243.18 153.43 238.35 C 151.89 236.92 147.54 233.77 143.78 231.36 L 136.93 226.97 L 123.72 234.25 L 110.50 241.53 L 110.22 257.26 L 109.95 273.00 L 114.72 272.99 C 117.35 272.98 121.36 272.32 123.63 271.53 C 130.89 269.00 138.78 273.28 140.66 280.76 C 141.68 284.83 138.98 291.11 135.09 293.73 C 131.88 295.89 131.06 295.98 120.80 295.36 L 109.92 294.69 L 110.21 303.54 L 110.50 312.39 L 122.00 319.67 C 128.32 323.68 134.26 327.22 135.20 327.53 C 136.98 328.13 147.94 321.81 153.77 316.83 C 158.10 313.12 161.49 312.38 166.40 314.09 C 171.06 315.72 175.00 320.79 175.00 325.18 C 175.00 332.52 170.56 337.39 162.50 338.90 C 160.05 339.36 156.45 340.94 154.52 342.42 L 151.00 345.10 L 151.00 359.40 C 151.00 371.77 151.23 373.89 152.75 375.19 C 153.71 376.02 162.38 381.32 172.00 386.99 C 181.62 392.65 194.62 400.34 200.88 404.07 L 212.27 410.85 L 224.38 404.46 L 236.50 398.07 L 236.76 346.38 Z M 313.00 392.16 L 341.50 375.24 L 341.78 359.65 L 342.05 344.06 L 338.05 341.53 C 335.84 340.14 333.12 339.00 331.99 339.00 C 328.14 339.00 323.05 336.13 321.03 332.81 C 317.22 326.57 318.82 319.39 324.91 315.28 C 329.34 312.30 333.85 312.37 338.10 315.50 C 345.12 320.65 356.54 328.00 357.50 327.98 C 358.05 327.98 364.12 324.45 371.00 320.14 L 383.50 312.32 L 383.79 303.51 L 384.08 294.69 L 373.29 295.33 C 361.05 296.06 358.88 295.43 355.28 290.09 C 349.39 281.34 355.81 270.41 366.60 270.81 C 368.48 270.88 370.89 271.40 371.94 271.97 C 373.00 272.54 376.16 273.00 378.96 273.00 L 384.05 273.00 L 383.78 257.42 L 383.50 241.83 L 370.24 234.41 L 356.97 226.98 L 350.24 231.16 C 346.53 233.45 342.01 236.72 340.19 238.41 C 337.33 241.09 336.16 241.50 331.37 241.50 C 326.27 241.50 325.58 241.21 322.42 237.76 C 319.70 234.79 319.00 233.20 319.00 229.97 C 319.00 222.45 323.01 217.79 330.60 216.47 C 332.75 216.09 336.20 214.70 338.27 213.37 L 342.05 210.94 L 341.77 193.31 L 341.50 175.67 L 324.48 165.59 C 315.12 160.04 301.56 152.01 294.36 147.75 L 281.26 139.99 L 269.16 145.75 L 257.07 151.50 L 257.03 212.25 L 257.00 273.00 L 261.75 272.98 C 264.36 272.98 268.19 272.38 270.26 271.66 C 275.50 269.84 279.53 270.69 283.56 274.49 C 286.61 277.37 287.00 278.31 287.00 282.88 C 287.00 287.35 286.55 288.52 283.57 291.76 L 280.14 295.50 L 268.56 295.19 L 256.98 294.88 L 257.24 346.58 L 257.50 398.28 L 269.44 404.57 C 278.00 409.08 281.82 410.62 282.94 409.98 C 283.80 409.49 297.33 401.47 313.00 392.16 Z M 183.80 379.27 C 174.56 373.54 177.31 358.29 187.93 356.38 C 194.01 355.29 194.00 355.32 194.00 337.06 L 194.00 320.37 L 180.75 313.94 L 167.50 307.50 L 167.23 281.83 L 166.97 256.16 L 180.44 246.33 L 193.91 236.50 L 193.95 219.31 C 194.00 202.65 193.93 202.07 191.78 200.56 C 190.56 199.70 188.75 199.00 187.76 199.00 C 186.78 199.00 184.29 197.46 182.24 195.58 C 178.77 192.40 178.50 191.75 178.50 186.50 C 178.50 181.25 178.77 180.60 182.24 177.42 C 185.21 174.70 186.80 174.00 190.03 174.00 C 192.27 174.00 195.42 174.68 197.03 175.52 C 199.97 177.04 203.00 181.56 203.00 184.44 C 203.00 185.28 205.22 187.66 207.94 189.73 L 212.89 193.50 L 212.94 219.18 L 213.00 244.87 L 199.50 254.93 L 186.00 264.98 L 186.00 280.56 L 186.00 296.14 L 199.50 302.55 L 213.00 308.97 L 213.00 334.78 L 213.00 360.58 L 208.44 365.04 C 205.94 367.49 203.05 371.38 202.03 373.68 C 199.00 380.49 190.15 383.21 183.80 379.27 Z M 295.14 378.47 C 293.49 377.07 291.65 374.46 291.05 372.66 C 290.46 370.86 287.95 367.41 285.49 364.99 L 281.00 360.58 L 281.00 334.73 L 281.00 308.88 L 294.50 302.48 L 308.00 296.08 L 308.00 280.61 L 308.00 265.13 L 294.50 255.07 L 281.00 245.02 L 281.00 219.19 L 281.00 193.36 L 285.14 190.36 C 287.94 188.33 289.81 185.93 290.91 182.96 C 293.70 175.42 302.14 171.82 308.97 175.28 C 312.34 176.98 316.00 182.67 316.00 186.20 C 316.00 191.69 310.29 199.00 306.00 199.00 C 305.05 199.00 303.08 199.93 301.63 201.07 L 299.00 203.15 L 299.00 219.40 L 299.00 235.65 L 312.50 245.56 L 326.00 255.46 L 326.00 281.61 L 326.00 307.75 L 315.79 312.63 C 310.18 315.31 304.22 318.17 302.54 319.00 L 299.50 320.50 L 299.22 336.27 C 298.92 353.72 299.46 356.00 303.89 356.00 C 308.21 356.00 313.29 359.96 314.91 364.60 C 316.71 369.79 315.78 373.42 311.54 377.66 C 308.64 380.56 307.54 381.00 303.18 381.00 C 299.26 381.00 297.49 380.44 295.14 378.47 Z" stroke-linecap="round"></path>
</g>
</g>
</g>

  </svg>